<?xml version="1.0" encoding="UTF-8"?>
<svg width="500" height="500" version="1.1" viewBox="0 0 500 500" xmlns="http://www.w3.org/2000/svg">
 <g>
  <path d="M250 100c-82.843 0-150 67.157-150 150s67.157 150 150 150 150-67.157 150-150-67.157-150-150-150zm0 270c-66.274 0-120-53.726-120-120s53.726-120 120-120 120 53.726 120 120-53.726 120-120 120z" fill="#00A3E0"/>
  <path d="m280 180c0-16.569-13.431-30-30-30s-30 13.431-30 30c0 16.569 13.431 30 30 30s30-13.431 30-30zm-30 60c-16.569 0-30 13.431-30 30s13.431 30 30 30 30-13.431 30-30-13.431-30-30-30z" fill="#00A3E0"/>
  <path d="m220 240h60v20h-60z" fill="#00A3E0"/>
 </g>
</svg>
